{"title":"Rakht Charitra 2 (2010) DVDScr x264 400Mb - Henry","uid":6054181,"size":419811345,"categoryP":"video","categoryS":"movies","magnet":"?xt=urn:btih:b3d64e41914ec3d4666e2ece165e19fb51c421df&amp;dn=Rakht+Charitra+2+%282010%29+DVDScr+x264+400Mb+-+Henry&amp;tr=udp%3A%2F%2Ftracker.openbittorrent.com%3A80&amp;tr=udp%3A%2F%2Fopen.demonii.com%3A1337&amp;tr=udp%3A%2F%2Ftracker.coppersurfer.tk%3A6969&amp;tr=udp%3A%2F%2Fexodus.desync.com%3A6969","seeders":0,"leechers":1,"uploader":"imsingh","files":2,"time":1292843947,"description":"\nEXCLUSIVE DHAMAKA FROM Henry\n\n\nFormat : Matroska\nFile size : 397 MiB\nDuration : 2h 22mn\nOverall bit rate : 391 Kbps\nMovie name : Rakht Charitra 2 DvDScr x264 - Henry Kharay\nEncoded date : UTC 2010-12-19 13:03:29\nWriting application : mkvmerge v4.2.0 ('No Talking') built on Jul 28 2010 18:38:23\nWriting library : libebml v1.0.0 + libmatroska v1.0.0 \n===================================================================================\nVideo\nID : 1\nFormat : AVC\nFormat/Info : Advanced Video Codec\nFormat profile : &lt;a class=&quot;__cf_email__&quot; href=&quot;/cdn-cgi/l/email-protection&quot; data-cfemail=&quot;93dbfaf4fbd3dfa1bda2&quot;&gt;[email&amp;#160;protected]&lt;/a&gt;&lt;script cf-hash='f9e31' type=&quot;text/javascript&quot;&gt;\n/* &lt;![CDATA[ */!function(){try{var t=&quot;currentScript&quot;in document?document.currentScript:function(){for(var t=document.getElementsByTagName(&quot;script&quot;),e=t.length;e--;)if(t[e].getAttribute(&quot;cf-hash&quot;))return t[e]}();if(t&amp;&amp;t.previousSibling){var e,r,n,i,c=t.previousSibling,a=c.getAttribute(&quot;data-cfemail&quot;);if(a){for(e=&quot;&quot;,r=parseInt(a.substr(0,2),16),n=2;a.length-n;n+=2)i=parseInt(a.substr(n,2),16)^r,e+=String.fromCharCode(i);e=document.createTextNode(e),c.parentNode.replaceChild(e,c)}}}catch(u){}}();/* ]]&gt; */&lt;/script&gt;\nFormat settings, CABAC : Yes\nFormat settings, ReFrames : 4 frames\nMuxing mode : Container profile=&lt;a class=&quot;__cf_email__&quot; href=&quot;/cdn-cgi/l/email-protection&quot; data-cfemail=&quot;6633080d0809110826544857&quot;&gt;[email&amp;#160;protected]&lt;/a&gt;&lt;script cf-hash='f9e31' type=&quot;text/javascript&quot;&gt;\n/* &lt;![CDATA[ */!function(){try{var t=&quot;currentScript&quot;in document?document.currentScript:function(){for(var t=document.getElementsByTagName(&quot;script&quot;),e=t.length;e--;)if(t[e].getAttribute(&quot;cf-hash&quot;))return t[e]}();if(t&amp;&amp;t.previousSibling){var e,r,n,i,c=t.previousSibling,a=c.getAttribute(&quot;data-cfemail&quot;);if(a){for(e=&quot;&quot;,r=parseInt(a.substr(0,2),16),n=2;a.length-n;n+=2)i=parseInt(a.substr(n,2),16)^r,e+=String.fromCharCode(i);e=document.createTextNode(e),c.parentNode.replaceChild(e,c)}}}catch(u){}}();/* ]]&gt; */&lt;/script&gt;\nCodec ID : V_MPEG4/ISO/AVC\nDuration : 2h 22mn\nBit rate : 292 Kbps\nWidth : 624 pixels\nHeight : 272 pixels\nDisplay aspect ratio : 2.25:1\nFrame rate : 23.976 fps\nColor space : YUV\nChroma subsampling : 4:2:0\nBit depth : 8 bits\nScan type : Progressive\nBits/(Pixel*Frame) : 0.072\nStream size : 290 MiB (73%)\nWriting library : x264 \n===================================================================================\nAudio\nID : 2\nFormat : MPEG Audio\nFormat version : Version 2\nFormat profile : Layer 3\nMode : Joint stereo\nMode extension : MS Stereo\nCodec ID : A_MPEG/L3\nCodec ID/Hint : MP3\nDuration : 2h 22mn\nBit rate mode : Variable\nBit rate : 97.3 Kbps\nNominal bit rate : 128 Kbps\nChannel(s) : 2 channels\nSampling rate : 24.0 KHz\nStream size : 98.8 MiB (25%)\nWriting library : LAME3.98r\nEncoding settings : -m j -V 4 -q 2 -lowpass 12 --abr 128 \n &lt;a href=&quot;\nhttp://bapugunda.com/images.php?i=4801_6.png&quot; rel=&quot;nofollow&quot; target=&quot;_NEW&quot;&gt;\nhttp://bapugunda.com/images.php?i=4801_6.png&lt;/a&gt; &lt;a href=&quot;\nhttp://bapugunda.com/images.php?i=4802_7.png&quot; rel=&quot;nofollow&quot; target=&quot;_NEW&quot;&gt;\nhttp://bapugunda.com/images.php?i=4802_7.png&lt;/a&gt; &lt;a href=&quot;\nhttp://bapugunda.com/images.php?i=4798_3.png&quot; rel=&quot;nofollow&quot; target=&quot;_NEW&quot;&gt;\nhttp://bapugunda.com/images.php?i=4798_3.png&lt;/a&gt; &lt;a href=&quot;\nhttp://bapugunda.com/images.php?i=4803_8.png&quot; rel=&quot;nofollow&quot; target=&quot;_NEW&quot;&gt;\nhttp://bapugunda.com/images.php?i=4803_8.png&lt;/a&gt;\n\nSample Include In Torrent\n\nkeep Seeing\nThnx\n\n","torrent":{"xt":"urn:btih:b3d64e41914ec3d4666e2ece165e19fb51c421df","amp;dn":"Rakht+Charitra+2+%282010%29+DVDScr+x264+400Mb+-+Henry","amp;tr":["udp%3A%2F%2Ftracker.openbittorrent.com%3A80","udp%3A%2F%2Fopen.demonii.com%3A1337","udp%3A%2F%2Ftracker.coppersurfer.tk%3A6969","udp%3A%2F%2Fexodus.desync.com%3A6969"],"infoHash":"b3d64e41914ec3d4666e2ece165e19fb51c421df","infoHashBuffer":{"type":"Buffer","data":[179,214,78,65,145,78,195,212,102,110,46,206,22,94,25,251,81,196,33,223]},"announce":[],"urlList":[]}}